<mxfile host="Electron" modified="2025-02-11T20:11:27.057Z" agent="Mozilla/5.0 (X11; Linux x86_64) AppleWebKit/537.36 (KHTML, like Gecko) draw.io/24.6.1 Chrome/124.0.6367.207 Electron/30.0.6 Safari/537.36" etag="f_UIieLbo1vWfvUafzEY" version="24.6.1" type="device">
  <diagram id="NSa18aZEY6gylXyAxlEX" name="Page-1">
    <mxGraphModel dx="1248" dy="982" grid="1" gridSize="10" guides="1" tooltips="1" connect="1" arrows="1" fold="1" page="1" pageScale="1" pageWidth="1600" pageHeight="900" math="0" shadow="0">
      <root>
        <mxCell id="0" />
        <mxCell id="1" parent="0" />
        <mxCell id="Y9yN1bhmZpT2N5PvJ_w0-34" value="" style="rounded=0;whiteSpace=wrap;html=1;movable=0;" parent="1" vertex="1">
          <mxGeometry x="130" y="100" width="1740" height="700" as="geometry" />
        </mxCell>
        <mxCell id="Y9yN1bhmZpT2N5PvJ_w0-43" value="" style="endArrow=none;html=1;rounded=0;fontFamily=Helvetica;fontSize=12;fontColor=default;exitX=0.936;exitY=0.004;exitDx=0;exitDy=0;exitPerimeter=0;entryX=0.936;entryY=0.004;entryDx=0;entryDy=0;entryPerimeter=0;" parent="1" edge="1">
          <mxGeometry width="50" height="50" relative="1" as="geometry">
            <mxPoint x="670.0000000000005" y="550" as="sourcePoint" />
            <mxPoint x="1420" y="650" as="targetPoint" />
          </mxGeometry>
        </mxCell>
        <mxCell id="Y9yN1bhmZpT2N5PvJ_w0-41" value="" style="endArrow=none;html=1;rounded=0;fontFamily=Helvetica;fontSize=12;fontColor=default;exitX=0.936;exitY=0.004;exitDx=0;exitDy=0;exitPerimeter=0;entryX=0.936;entryY=0.004;entryDx=0;entryDy=0;entryPerimeter=0;" parent="1" edge="1">
          <mxGeometry width="50" height="50" relative="1" as="geometry">
            <mxPoint x="880.0000000000005" y="300" as="sourcePoint" />
            <mxPoint x="1630" y="400" as="targetPoint" />
          </mxGeometry>
        </mxCell>
        <mxCell id="Y9yN1bhmZpT2N5PvJ_w0-42" value="" style="endArrow=none;html=1;rounded=0;fontFamily=Helvetica;fontSize=12;fontColor=default;exitX=0.936;exitY=0.004;exitDx=0;exitDy=0;exitPerimeter=0;entryX=0.936;entryY=0.004;entryDx=0;entryDy=0;entryPerimeter=0;" parent="1" edge="1">
          <mxGeometry width="50" height="50" relative="1" as="geometry">
            <mxPoint x="880.0000000000005" y="340" as="sourcePoint" />
            <mxPoint x="1630" y="440" as="targetPoint" />
          </mxGeometry>
        </mxCell>
        <mxCell id="Y9yN1bhmZpT2N5PvJ_w0-39" value="" style="endArrow=none;html=1;rounded=0;fontFamily=Helvetica;fontSize=12;fontColor=default;exitX=0.936;exitY=0.004;exitDx=0;exitDy=0;exitPerimeter=0;entryX=0.936;entryY=0.004;entryDx=0;entryDy=0;entryPerimeter=0;" parent="1" edge="1">
          <mxGeometry width="50" height="50" relative="1" as="geometry">
            <mxPoint x="880.0000000000005" y="280" as="sourcePoint" />
            <mxPoint x="1630" y="380" as="targetPoint" />
          </mxGeometry>
        </mxCell>
        <mxCell id="Y9yN1bhmZpT2N5PvJ_w0-40" value="" style="endArrow=none;html=1;rounded=0;fontFamily=Helvetica;fontSize=12;fontColor=default;exitX=0.936;exitY=0.004;exitDx=0;exitDy=0;exitPerimeter=0;entryX=0.936;entryY=0.004;entryDx=0;entryDy=0;entryPerimeter=0;" parent="1" edge="1">
          <mxGeometry width="50" height="50" relative="1" as="geometry">
            <mxPoint x="880.0000000000005" y="510" as="sourcePoint" />
            <mxPoint x="1630" y="610" as="targetPoint" />
          </mxGeometry>
        </mxCell>
        <mxCell id="Y9yN1bhmZpT2N5PvJ_w0-38" value="" style="endArrow=none;html=1;rounded=0;fontFamily=Helvetica;fontSize=12;fontColor=default;exitX=0.936;exitY=0.004;exitDx=0;exitDy=0;exitPerimeter=0;entryX=0.936;entryY=0.004;entryDx=0;entryDy=0;entryPerimeter=0;" parent="1" edge="1">
          <mxGeometry width="50" height="50" relative="1" as="geometry">
            <mxPoint x="840.0000000000005" y="550" as="sourcePoint" />
            <mxPoint x="1590.0000000000005" y="650" as="targetPoint" />
          </mxGeometry>
        </mxCell>
        <mxCell id="Y9yN1bhmZpT2N5PvJ_w0-7" value="" style="rounded=1;whiteSpace=wrap;html=1;" parent="1" vertex="1">
          <mxGeometry x="390" y="240" width="490" height="310" as="geometry" />
        </mxCell>
        <mxCell id="Y9yN1bhmZpT2N5PvJ_w0-25" value="Rear Panel" style="text;html=1;align=center;verticalAlign=middle;resizable=0;points=[];autosize=1;strokeColor=none;fillColor=none;" parent="1" vertex="1">
          <mxGeometry x="1345" y="250" width="80" height="20" as="geometry" />
        </mxCell>
        <mxCell id="Y9yN1bhmZpT2N5PvJ_w0-26" value="Proton Pack" style="text;html=1;align=center;verticalAlign=middle;resizable=0;points=[];autosize=1;strokeColor=none;fillColor=none;" parent="1" vertex="1">
          <mxGeometry x="970" y="750" width="80" height="20" as="geometry" />
        </mxCell>
        <mxCell id="Y9yN1bhmZpT2N5PvJ_w0-29" value="Front Panel" style="text;html=1;align=center;verticalAlign=middle;resizable=0;points=[];autosize=1;strokeColor=none;fillColor=none;" parent="1" vertex="1">
          <mxGeometry x="595" y="180" width="80" height="20" as="geometry" />
        </mxCell>
        <mxCell id="Y9yN1bhmZpT2N5PvJ_w0-35" value="" style="rounded=1;whiteSpace=wrap;html=1;" parent="1" vertex="1">
          <mxGeometry x="1140" y="340" width="490" height="310" as="geometry" />
        </mxCell>
        <mxCell id="Y9yN1bhmZpT2N5PvJ_w0-36" value="" style="endArrow=none;html=1;rounded=0;fontFamily=Helvetica;fontSize=12;fontColor=default;exitX=0.936;exitY=0.004;exitDx=0;exitDy=0;exitPerimeter=0;entryX=0.936;entryY=0.004;entryDx=0;entryDy=0;entryPerimeter=0;" parent="1" source="Y9yN1bhmZpT2N5PvJ_w0-7" target="Y9yN1bhmZpT2N5PvJ_w0-35" edge="1">
          <mxGeometry width="50" height="50" relative="1" as="geometry">
            <mxPoint x="1320" y="480" as="sourcePoint" />
            <mxPoint x="1370" y="430" as="targetPoint" />
          </mxGeometry>
        </mxCell>
        <mxCell id="Y9yN1bhmZpT2N5PvJ_w0-37" value="" style="endArrow=none;html=1;rounded=0;fontFamily=Helvetica;fontSize=12;fontColor=default;exitX=0.936;exitY=0.004;exitDx=0;exitDy=0;exitPerimeter=0;entryX=0.936;entryY=0.004;entryDx=0;entryDy=0;entryPerimeter=0;" parent="1" edge="1">
          <mxGeometry width="50" height="50" relative="1" as="geometry">
            <mxPoint x="425.00000000000034" y="550.0000000000002" as="sourcePoint" />
            <mxPoint x="1175.0000000000005" y="650.0000000000002" as="targetPoint" />
          </mxGeometry>
        </mxCell>
        <mxCell id="Y9yN1bhmZpT2N5PvJ_w0-44" value="Ethernet" style="text;html=1;align=center;verticalAlign=middle;resizable=0;points=[];autosize=1;strokeColor=none;fillColor=none;fontSize=12;fontFamily=Helvetica;fontColor=default;" parent="1" vertex="1">
          <mxGeometry x="1355" y="380" width="60" height="20" as="geometry" />
        </mxCell>
        <mxCell id="Y9yN1bhmZpT2N5PvJ_w0-45" value="USB" style="text;html=1;align=center;verticalAlign=middle;resizable=0;points=[];autosize=1;strokeColor=none;fillColor=none;fontSize=12;fontFamily=Helvetica;fontColor=default;" parent="1" vertex="1">
          <mxGeometry x="1500" y="380" width="40" height="20" as="geometry" />
        </mxCell>
        <mxCell id="Y9yN1bhmZpT2N5PvJ_w0-46" value="SMA P" style="text;html=1;align=center;verticalAlign=middle;resizable=0;points=[];autosize=1;strokeColor=none;fillColor=none;fontSize=12;fontFamily=Helvetica;fontColor=default;" parent="1" vertex="1">
          <mxGeometry x="545" y="270" width="50" height="20" as="geometry" />
        </mxCell>
        <mxCell id="Y9yN1bhmZpT2N5PvJ_w0-47" value="SMA N" style="text;html=1;align=center;verticalAlign=middle;resizable=0;points=[];autosize=1;strokeColor=none;fillColor=none;fontSize=12;fontFamily=Helvetica;fontColor=default;" parent="1" vertex="1">
          <mxGeometry x="460" y="270" width="50" height="20" as="geometry" />
        </mxCell>
        <mxCell id="Y9yN1bhmZpT2N5PvJ_w0-48" value="WiFi Antenna" style="text;html=1;align=center;verticalAlign=middle;resizable=0;points=[];autosize=1;strokeColor=none;fillColor=none;fontSize=12;fontFamily=Helvetica;fontColor=default;" parent="1" vertex="1">
          <mxGeometry x="1180" y="380" width="90" height="20" as="geometry" />
        </mxCell>
        <mxCell id="Y9yN1bhmZpT2N5PvJ_w0-49" value="On/Off&lt;br&gt;Toggle Switch" style="text;html=1;align=center;verticalAlign=middle;resizable=0;points=[];autosize=1;strokeColor=none;fillColor=none;fontSize=12;fontFamily=Helvetica;fontColor=default;" parent="1" vertex="1">
          <mxGeometry x="720" y="265" width="90" height="30" as="geometry" />
        </mxCell>
        <mxCell id="Y9yN1bhmZpT2N5PvJ_w0-51" value="Record/Stop&lt;br&gt;Toggle Switch" style="text;html=1;align=center;verticalAlign=middle;resizable=0;points=[];autosize=1;strokeColor=none;fillColor=none;fontSize=12;fontFamily=Helvetica;fontColor=default;" parent="1" vertex="1">
          <mxGeometry x="730" y="470" width="90" height="30" as="geometry" />
        </mxCell>
        <mxCell id="Y9yN1bhmZpT2N5PvJ_w0-52" value="Green &lt;br&gt;Good Data&lt;br&gt;LED" style="text;html=1;align=center;verticalAlign=middle;resizable=0;points=[];autosize=1;strokeColor=none;fillColor=none;fontSize=12;fontFamily=Helvetica;fontColor=default;" parent="1" vertex="1">
          <mxGeometry x="550" y="460" width="70" height="50" as="geometry" />
        </mxCell>
        <mxCell id="Y9yN1bhmZpT2N5PvJ_w0-53" value="Green&lt;br&gt;Good Link&lt;br&gt;LED" style="text;html=1;align=center;verticalAlign=middle;resizable=0;points=[];autosize=1;strokeColor=none;fillColor=none;fontSize=12;fontFamily=Helvetica;fontColor=default;" parent="1" vertex="1">
          <mxGeometry x="470" y="460" width="70" height="50" as="geometry" />
        </mxCell>
        <mxCell id="Y9yN1bhmZpT2N5PvJ_w0-54" value="Green&lt;br&gt;Recording&lt;br&gt;LED" style="text;html=1;align=center;verticalAlign=middle;resizable=0;points=[];autosize=1;strokeColor=none;fillColor=none;fontSize=12;fontFamily=Helvetica;fontColor=default;" parent="1" vertex="1">
          <mxGeometry x="630" y="460" width="70" height="50" as="geometry" />
        </mxCell>
        <mxCell id="Y9yN1bhmZpT2N5PvJ_w0-56" value="Green&lt;br&gt;Drive Space&lt;br&gt;LED" style="text;html=1;align=center;verticalAlign=middle;resizable=0;points=[];autosize=1;strokeColor=none;fillColor=none;fontSize=12;fontFamily=Helvetica;fontColor=default;" parent="1" vertex="1">
          <mxGeometry x="390" y="460" width="80" height="50" as="geometry" />
        </mxCell>
        <mxCell id="Y9yN1bhmZpT2N5PvJ_w0-57" value="Green&lt;br&gt;Battery&lt;br&gt;LED" style="text;html=1;align=center;verticalAlign=middle;resizable=0;points=[];autosize=1;strokeColor=none;fillColor=none;fontSize=12;fontFamily=Helvetica;fontColor=default;" parent="1" vertex="1">
          <mxGeometry x="1200" y="580" width="50" height="50" as="geometry" />
        </mxCell>
        <mxCell id="5Na_U4txtoTZAWR6LoX1-1" value="1/4 balance Right&lt;br&gt;input" style="text;html=1;align=center;verticalAlign=middle;resizable=0;points=[];autosize=1;strokeColor=none;fillColor=none;fontSize=12;fontFamily=Helvetica;fontColor=default;" vertex="1" parent="1">
          <mxGeometry x="705" y="355" width="120" height="40" as="geometry" />
        </mxCell>
        <mxCell id="5Na_U4txtoTZAWR6LoX1-2" value="?? 1/4 balance Left&lt;br&gt;input" style="text;html=1;align=center;verticalAlign=middle;resizable=0;points=[];autosize=1;strokeColor=none;fillColor=none;fontSize=12;fontFamily=Helvetica;fontColor=default;" vertex="1" parent="1">
          <mxGeometry x="475" y="355" width="130" height="40" as="geometry" />
        </mxCell>
      </root>
    </mxGraphModel>
  </diagram>
</mxfile>
